<svg width="187" height="172" viewBox="0 0 187 172" fill="none" xmlns="http://www.w3.org/2000/svg">
<path d="M9.94722 0.0160868C4.46849 0.0160868 0 4.50808 0 10.0156V162C0 167.508 4.46849 172 9.94722 172H117.377C122.856 172 127.324 167.508 127.324 162V116.057L132.135 113.822C132.345 113.721 132.539 113.588 132.702 113.416L186.417 59.4186C187.194 58.6374 187.194 57.372 186.417 56.5906L172.491 42.5912C171.729 41.8178 170.486 41.8022 169.701 42.56L127.316 83.6441V9.99953C127.316 4.49199 122.848 0 117.369 0L9.94722 0.0160868ZM9.94722 4.0159H117.377C120.719 4.0159 123.345 6.65637 123.345 10.0156V87.52L114.004 96.5664C113.795 96.7695 113.631 97.0194 113.53 97.2851L103.583 123.284C102.938 124.963 104.656 126.573 106.272 125.815L123.346 117.894V161.993C123.346 165.353 120.719 167.993 117.377 167.993H9.94726C6.60559 167.993 3.97893 165.353 3.97893 161.993V10.0086C3.97893 6.64933 6.60559 4.00886 9.94726 4.00886L9.94722 4.0159ZM48.2042 34.7245L29.8174 56.9034L19.4116 44.7008C18.6967 43.8649 17.4455 43.7633 16.614 44.482C15.7825 45.2008 15.6815 46.4663 16.3965 47.3023L28.3331 61.3016C29.1336 62.2391 30.5868 62.2313 31.3716 61.2782L51.266 37.2793C51.9654 36.4278 51.8567 35.17 51.0096 34.4671C50.1703 33.764 48.9113 33.8734 48.212 34.7249L48.2042 34.7245ZM65.6506 46.0129C64.5549 46.0129 63.6612 46.9113 63.6612 48.0128C63.6612 49.1143 64.5549 50.0127 65.6506 50.0127H109.418C110.514 50.0127 111.408 49.1143 111.408 48.0128C111.408 46.9113 110.514 46.0129 109.418 46.0129H65.6506ZM171.059 46.8098L182.196 58.0046L174.23 66.0121L163.715 53.9266L171.059 46.8098ZM160.848 56.7077L171.417 68.8477C158.159 82.0033 146.223 94.0026 129.157 110.792L118.13 98.1206L160.848 56.7077ZM48.2036 70.7226L29.8168 92.9016L19.411 80.699C18.6961 79.8631 17.4449 79.7615 16.6134 80.4802C15.7819 81.199 15.6809 82.4645 16.3959 83.3005L28.3325 97.2998C29.133 98.2373 30.5862 98.2295 31.371 97.2764L51.2654 73.2775C51.9648 72.426 51.8561 71.1682 51.009 70.4653C50.1619 69.7622 48.9107 69.8793 48.2114 70.7231L48.2036 70.7226ZM65.65 82.0033C64.5543 82.0033 63.6606 82.9017 63.6606 84.0032C63.6606 85.1047 64.5543 86.0031 65.65 86.0031H109.418C110.514 86.0031 111.407 85.1047 111.407 84.0032C111.407 82.9017 110.514 82.0033 109.418 82.0033H65.65ZM116.063 101.807L125.396 112.533L109.061 120.111L116.063 101.807ZM20.4837 110.58C19.7066 111.361 19.7066 112.627 20.4837 113.408L31.0138 123.994L20.4837 134.579C19.7066 135.36 19.7066 136.626 20.4837 137.407C21.2608 138.188 22.5197 138.188 23.297 137.407L33.8271 126.822L44.3572 137.407C45.1343 138.188 46.3932 138.188 47.1705 137.407C47.9476 136.626 47.9476 135.36 47.1705 134.579L36.6404 123.994L47.1705 113.408C47.9476 112.627 47.9476 111.361 47.1705 110.58C46.3934 109.799 45.1345 109.799 44.3572 110.58L33.8271 121.165L23.297 110.58C22.5198 109.799 21.261 109.799 20.4837 110.58ZM65.658 121.993C64.5623 121.993 63.6686 122.892 63.6686 123.993C63.6686 125.095 64.5623 125.993 65.658 125.993H89.5313C90.6271 125.993 91.5208 125.095 91.5208 123.993C91.5208 122.892 90.6271 121.993 89.5313 121.993H65.658Z" fill="black"/>
</svg>
