<svg width="48" height="30" viewBox="0 0 48 30" fill="none" xmlns="http://www.w3.org/2000/svg">
<path d="M38.6296 11.2654C37.7596 11.2654 36.9196 11.3933 36.1176 11.6172L31.9757 0.519601C31.8597 0.20783 31.5597 0 31.2257 0H26.8797C26.4377 0 26.0797 0.357735 26.0797 0.799407C26.0797 1.24108 26.4377 1.59881 26.8797 1.59881H30.6697L32.7157 7.07878H18.176L16.776 4.00906H18.306C18.748 4.00906 19.106 3.65132 19.106 3.20965C19.106 2.76798 18.748 2.41024 18.306 2.41024H15.5101H15.5081H12.7281C12.2861 2.41024 11.9281 2.76798 11.9281 3.20965C11.9281 3.65132 12.2861 4.00906 12.7281 4.00906H15.0181L16.7521 7.81224L13.7881 12.3729C12.4721 11.6674 10.9701 11.2657 9.37411 11.2657C4.20604 11.2657 0 15.4665 0 20.6309C0 25.7952 4.20394 29.9982 9.37411 29.9982C14.2741 29.9982 18.3023 26.221 18.7062 21.4265H23.4422C23.4522 21.4265 23.4622 21.4305 23.4722 21.4305C23.5842 21.4305 23.6962 21.4065 23.8022 21.3585C23.8062 21.3565 23.8102 21.3525 23.8142 21.3505C23.8342 21.3425 23.8462 21.3245 23.8662 21.3146C23.9462 21.2686 24.0182 21.2166 24.0742 21.1507C24.0802 21.1427 24.0902 21.1407 24.0962 21.1327L33.6039 9.46723L34.6159 12.1792C31.45 13.6841 29.2518 16.9037 29.2518 20.6327C29.2518 25.797 33.4557 30 38.6259 30C43.794 30 48 25.7991 48 20.6327C48 15.4684 43.7961 11.2675 38.6259 11.2675L38.6296 11.2654ZM17.54 9.53871L22.2319 19.8289H18.712C18.484 17.1589 17.132 14.8126 15.13 13.252L17.542 9.53881L17.54 9.53871ZM17.108 19.8289H10.854L14.2559 14.593C15.8239 15.8601 16.892 17.7187 17.108 19.8289ZM9.37788 28.3986C5.09192 28.3986 1.60375 24.9132 1.60375 20.6301C1.60375 16.3473 5.09172 12.8637 9.37788 12.8637C10.6519 12.8637 11.8518 13.1775 12.9138 13.7231L8.70988 20.1925C8.54988 20.4384 8.53788 20.7522 8.67788 21.008C8.81788 21.2658 9.08788 21.4257 9.38187 21.4257H17.1099C16.7099 25.3367 13.3941 28.3986 9.37788 28.3986ZM23.6697 19.1295L18.9057 8.67918H32.1874L23.6697 19.1295ZM38.6297 28.3986C34.3437 28.3986 30.8556 24.9132 30.8556 20.6301C30.8556 17.5864 32.6215 14.9522 35.1815 13.6793L37.8795 20.91C37.9995 21.2318 38.3035 21.4296 38.6294 21.4296C38.7214 21.4296 38.8174 21.4136 38.9094 21.3796C39.3234 21.2257 39.5334 20.7641 39.3794 20.3504L36.6815 13.1197C37.3055 12.9578 37.9575 12.8619 38.6315 12.8619C42.9174 12.8619 46.4056 16.3473 46.4056 20.6283C46.4056 24.9111 42.9176 28.3967 38.6315 28.3967L38.6297 28.3986Z" fill="black"/>
</svg>
