<svg width="58" height="62" viewBox="0 0 58 62" fill="none" xmlns="http://www.w3.org/2000/svg">
<path d="M57.1507 46.1L49.0097 39.226C49.2737 38.734 49.4407 38.19 49.4887 37.616C49.5817 36.51 49.2397 35.435 48.5267 34.593C48.0047 33.972 47.3257 33.528 46.5637 33.299C47.6947 31.787 47.6817 29.638 46.4157 28.134C45.8657 27.481 45.1417 27.024 44.3297 26.807C45.2347 25.325 45.1427 23.366 43.9617 21.963C43.3077 21.189 42.4077 20.69 41.4077 20.542C41.8657 19.206 41.6337 17.668 40.6597 16.513C39.9487 15.668 38.9457 15.152 37.8387 15.058C36.7257 14.961 35.6557 15.305 34.8107 16.017L34.6567 16.147L29.9907 13.97C27.5487 12.702 25.4107 13.699 24.3767 15.246C24.0327 15.76 23.8217 16.315 23.7117 16.875L22.6947 16.016C20.9437 14.542 18.3207 14.767 16.8457 16.513C15.8717 17.668 15.6397 19.206 16.0987 20.542C15.0987 20.69 14.2007 21.188 13.5447 21.964C12.8327 22.809 12.4917 23.883 12.5847 24.989C12.6407 25.645 12.8437 26.263 13.1757 26.807C12.3887 27.019 11.6547 27.464 11.0897 28.133C9.82272 29.637 9.81072 31.786 10.9427 33.298C10.2017 33.523 9.51472 33.955 8.97972 34.59C7.85272 35.924 7.72272 37.768 8.50072 39.225L0.35572 46.099C-0.0672799 46.455 -0.12028 47.086 0.23572 47.508C0.43372 47.742 0.71572 47.863 1.00172 47.863C1.22972 47.863 1.45772 47.786 1.64572 47.628L9.81872 40.731L13.0967 43.495C13.8497 44.13 14.7847 44.47 15.7617 44.47C15.8807 44.47 16.0007 44.464 16.1207 44.454C17.2257 44.36 18.2277 43.844 18.9367 43.001C19.6507 42.158 19.9927 41.085 19.8997 39.978C19.8507 39.392 19.6767 38.841 19.4057 38.341C20.2317 38.141 21.0067 37.696 21.5947 36.999C22.4047 36.038 22.6837 34.816 22.4967 33.663C22.4977 33.663 22.4987 33.663 22.4997 33.663C23.6657 33.663 24.8147 33.179 25.6017 32.25C26.3367 31.511 26.7167 30.505 26.6697 29.419C26.6677 29.383 26.6557 29.349 26.6537 29.314C26.8177 29.334 26.9797 29.361 27.1467 29.361C27.2657 29.361 27.3867 29.356 27.5067 29.345C28.6137 29.251 29.6147 28.734 30.2667 27.954C31.0057 27.219 31.3877 26.216 31.3427 25.129C31.3017 24.141 30.9017 23.212 30.2517 22.482L36.0987 17.545C36.5357 17.178 37.0897 16.997 37.6677 17.051C38.2427 17.099 38.7617 17.366 39.1287 17.802C39.8917 18.707 39.7757 20.068 38.8707 20.832L38.1147 21.472C38.1137 21.473 38.1137 21.473 38.1137 21.473C37.6927 21.829 37.6397 22.46 37.9977 22.882C38.3527 23.303 38.9837 23.355 39.4057 22.999L39.4107 22.994C39.8447 22.631 40.4017 22.459 40.9677 22.503C41.5437 22.551 42.0647 22.817 42.4317 23.253C43.1957 24.16 43.0797 25.519 42.1737 26.283L40.5697 27.64C40.5697 27.64 40.5687 27.641 40.5677 27.641C40.1467 27.998 40.0937 28.629 40.4507 29.05C40.8067 29.472 41.4377 29.525 41.8597 29.168C42.2957 28.798 42.8677 28.627 43.4257 28.671C43.9997 28.72 44.5177 28.986 44.8847 29.422C45.6477 30.328 45.5317 31.688 44.6277 32.452L42.6817 34.094L42.6807 34.095C42.2587 34.451 42.2047 35.082 42.5607 35.504C42.9167 35.926 43.5467 35.981 43.9697 35.624L43.9727 35.622C44.4087 35.255 44.9587 35.084 45.5367 35.128C46.1107 35.177 46.6287 35.443 46.9967 35.881C47.3657 36.318 47.5417 36.874 47.4937 37.447C47.4447 38.021 47.1787 38.541 46.7427 38.909L37.6537 46.581C33.9447 49.712 30.8857 49.381 26.2907 48.467C25.9907 48.404 25.6837 48.487 25.4497 48.684L11.7647 60.236C11.3427 60.591 11.2897 61.222 11.6467 61.645C11.8437 61.879 12.1257 62 12.4107 62C12.6387 62 12.8667 61.923 13.0557 61.764L26.3737 50.521C28.2717 50.887 30.0087 51.142 31.6867 51.08L44.4587 61.767C44.6477 61.924 44.8747 62 45.1007 62C45.3867 62 45.6707 61.878 45.8687 61.642C46.2227 61.218 46.1677 60.588 45.7437 60.234L34.3277 50.681C35.8427 50.252 37.3547 49.452 38.9437 48.111L47.6917 40.729L55.8607 47.627C56.0487 47.786 56.2777 47.863 56.5057 47.863C56.7907 47.863 57.0727 47.743 57.2707 47.509C57.6257 47.087 57.5727 46.456 57.1507 46.1ZM26.1447 18.927C25.3877 18.288 25.5257 17.126 26.0407 16.357C26.2947 15.977 27.2647 14.81 29.1087 15.763L32.9747 17.567L28.7537 21.131L26.1537 18.937L26.1467 18.931C26.1457 18.93 26.1467 18.928 26.1447 18.927ZM17.4107 41.709C17.0437 42.146 16.5257 42.412 15.9527 42.46C15.3737 42.512 14.8217 42.332 14.3867 41.965L10.7637 38.911C9.85872 38.143 9.74372 36.784 10.5087 35.88C11.2667 34.98 12.6097 34.861 13.5167 35.611L17.1587 38.682C17.5947 39.049 17.8607 39.568 17.9087 40.143C17.9567 40.718 17.7797 41.273 17.4107 41.709ZM20.0677 35.708C19.3037 36.613 17.9457 36.729 17.0397 35.967L14.8307 34.104C14.8277 34.102 14.8267 34.098 14.8237 34.095L14.8227 34.094L12.8777 32.453C11.9727 31.687 11.8567 30.328 12.6187 29.423C12.9877 28.986 13.5077 28.72 14.0817 28.671C14.6567 28.624 15.2127 28.799 15.6487 29.168L15.6497 29.169C15.6517 29.171 15.6557 29.171 15.6577 29.173L19.8087 32.68C20.7147 33.444 20.8297 34.804 20.0677 35.708ZM24.1317 30.896C23.3657 31.801 22.0077 31.917 21.1007 31.152L16.9267 27.627C16.9257 27.626 16.9237 27.626 16.9227 27.625L15.3297 26.281C14.8937 25.914 14.6277 25.395 14.5787 24.82C14.5297 24.246 14.7067 23.688 15.0737 23.253C15.4417 22.817 15.9607 22.551 16.5347 22.503C17.0987 22.45 17.6597 22.628 18.0947 22.991L18.1037 22.999L23.8727 27.867C24.3487 28.269 24.6477 28.881 24.6747 29.503C24.6957 30.025 24.5237 30.499 24.1317 30.896ZM28.7997 26.6C28.4327 27.036 27.9147 27.302 27.3407 27.351C26.7637 27.404 26.2107 27.224 25.7767 26.858C25.7277 26.817 25.6837 26.816 25.6427 26.839C25.4927 26.664 25.3397 26.489 25.1627 26.339L19.3927 21.47C19.3887 21.466 19.3847 21.464 19.3807 21.46L18.6337 20.831C17.7287 20.066 17.6127 18.706 18.3747 17.802C19.1397 16.898 20.4997 16.781 21.4047 17.543L22.7717 18.698C22.7727 18.698 22.7727 18.699 22.7737 18.7L24.9457 20.534L25.6177 21.101L28.5467 23.574C29.0227 23.975 29.3207 24.587 29.3477 25.211C29.3687 25.73 29.1947 26.2 28.7997 26.6Z" fill="black"/>
<path d="M32.7578 7.26C33.3108 7.26 33.7578 6.813 33.7578 6.26V1C33.7578 0.447 33.3108 0 32.7578 0C32.2048 0 31.7578 0.447 31.7578 1V6.26C31.7578 6.813 32.2048 7.26 32.7578 7.26Z" fill="black"/>
<path d="M46.0071 10.135C46.3151 10.135 46.6181 9.99303 46.8151 9.72703L49.9261 5.48703C50.2521 5.04203 50.1561 4.41603 49.7111 4.08903C49.2631 3.76103 48.6391 3.86003 48.3131 4.30403L45.2021 8.54403C44.8761 8.98903 44.9721 9.61503 45.4171 9.94203C45.5951 10.072 45.8021 10.135 46.0071 10.135Z" fill="black"/>
<path d="M18.7016 9.72699C18.8966 9.99399 19.2006 10.135 19.5086 10.135C19.7136 10.135 19.9206 10.072 20.0996 9.94099C20.5446 9.61499 20.6406 8.98899 20.3136 8.54399L17.2006 4.30399C16.8746 3.85999 16.2496 3.76299 15.8036 4.08999C15.3586 4.41599 15.2626 5.04199 15.5896 5.48699L18.7016 9.72699Z" fill="black"/>
</svg>
