<svg width="35" height="35" viewBox="0 0 35 35" fill="none" xmlns="http://www.w3.org/2000/svg">
<circle cx="17.5" cy="17.5" r="17.5" fill="#C00000"/>
<path d="M22.0038 17.5L29.9556 14.9287L25.0408 21.6609V13.3391L29.9556 20.0713L22.0038 17.5ZM22.5459 22.1789C21.5274 23.7809 20.0137 25.0103 18.2327 25.6821C16.4516 26.354 14.4995 26.4319 12.6701 25.9041C10.8407 25.3764 9.23297 24.2716 8.08887 22.7559C6.94477 21.2403 6.32617 19.3958 6.32617 17.5C6.32617 15.6042 6.94477 13.7597 8.08887 12.2441C9.23297 10.7284 10.8407 9.62358 12.6701 9.09585C14.4995 8.56813 16.4516 8.64604 18.2327 9.31787C20.0137 9.98971 21.5274 11.2191 22.5459 12.8211C21.5948 11.7677 20.345 11.0262 18.9617 10.6946C17.5783 10.363 16.1264 10.4568 14.7977 10.9637C13.4691 11.4706 12.3262 12.3668 11.5199 13.5338C10.7137 14.7008 10.2821 16.0837 10.2821 17.5C10.2821 18.9163 10.7137 20.2992 11.5199 21.4662C12.3262 22.6332 13.4691 23.5294 14.7977 24.0363C16.1264 24.5432 17.5783 24.637 18.9617 24.3054C20.345 23.9738 21.5948 23.2323 22.5459 22.1789Z" fill="white"/>
</svg>
