<svg width="20" height="20" viewBox="0 0 20 20" fill="none" xmlns="http://www.w3.org/2000/svg">
<path d="M0 14.1026C0 17.3587 2.64128 20 5.89744 20H14.1026C17.3587 20 20 17.3587 20 14.1026V5.89744C20 2.64128 17.3587 0 14.1026 0H5.89744C2.64128 0 0 2.64128 0 5.89744V14.1026ZM15.3846 3.58974C16.1028 3.58974 16.6667 4.15364 16.6667 4.8718C16.6667 5.58995 16.1028 6.15385 15.3846 6.15385C14.6665 6.15385 14.1026 5.58995 14.1026 4.8718C14.1026 4.15364 14.6665 3.58974 15.3846 3.58974ZM10 5.12821C12.6923 5.12821 14.8718 7.30769 14.8718 10C14.8718 12.6923 12.6923 14.8718 10 14.8718C7.30769 14.8718 5.12821 12.6923 5.12821 10C5.12821 7.30769 7.30769 5.12821 10 5.12821Z" fill="black"/>
<path d="M13.3333 10C13.3333 11.8409 11.8409 13.3333 10 13.3333C8.15905 13.3333 6.66667 11.8409 6.66667 10C6.66667 8.15905 8.15905 6.66667 10 6.66667C11.8409 6.66667 13.3333 8.15905 13.3333 10Z" fill="black"/>
</svg>
