<svg width="25" height="26" viewBox="0 0 25 26" fill="none" xmlns="http://www.w3.org/2000/svg">
<path d="M12.2334 0C5.78978 0.0739032 1.04901 4.3298 0.0289343 9.83563C0.0262991 9.84619 0.0262991 9.85675 0.0236636 9.86598C-0.0250901 10.2117 -0.0053254 10.5562 0.147526 10.8584C0.300378 11.1606 0.549416 11.3427 0.744424 11.4562C1.13579 11.6845 1.40855 11.7611 1.70897 12.058C2.01995 12.3655 2.21628 12.7482 2.42579 13.1349C2.52989 13.3275 2.63398 13.5268 2.81449 13.7274C2.99501 13.928 3.32311 14.1365 3.68547 14.1365H3.89893L7.65303 20.9619C7.7031 21.8844 8.11948 22.8122 8.72825 23.6449C9.37656 24.533 10.2594 25.313 11.3056 25.7234C12.3519 26.1338 13.6037 26.1312 14.7038 25.4172C15.7646 24.7297 16.6553 23.4627 17.3353 21.4857L21.6058 18.4069C21.6651 18.4122 21.7257 18.4174 21.785 18.4201C22.0933 18.4306 22.4096 18.3924 22.7232 18.263C23.0381 18.1337 23.3781 17.8803 23.5335 17.4739L23.5388 17.4686C25.5417 12.0249 25.4521 7.70424 23.4756 4.69271C21.499 1.67982 17.741 0.154121 12.8616 0.00648348C12.6508 0.00120502 12.4413 -0.00143457 12.2331 0.001205L12.2334 0ZM12.2571 1.40813C12.4429 1.40681 12.63 1.40813 12.8198 1.41341H12.8211C17.433 1.5533 20.6507 2.95482 22.2993 5.46618C23.9437 7.97098 24.1308 11.7585 22.2294 16.9461C22.2268 16.9448 22.2189 16.9474 22.1899 16.9593C22.1161 16.9896 21.9711 17.0213 21.8315 17.0174C21.7458 17.0147 21.7037 16.9962 21.6444 16.9804V15.047C21.6444 14.3423 21.3189 13.7709 20.9552 13.3961C20.7734 13.2087 20.5797 13.0675 20.3847 12.9593C20.1883 12.851 20.0144 12.7573 19.7153 12.7573H18.8812C18.2091 12.7573 17.7427 13.1374 17.4502 13.375C17.1576 13.6112 17.0338 13.6811 16.9731 13.6811H16.0494C16.0363 13.6811 15.8584 13.6257 15.5935 13.375C15.3287 13.1242 15.0058 12.7349 14.654 12.3113C13.9504 11.4627 13.1295 10.4201 11.8619 10.1391C8.55184 9.4053 5.09172 9.62175 1.48639 9.88963C1.61947 9.24297 1.81185 8.61877 2.05299 8.0196C2.0912 8.02488 2.1281 8.03016 2.16631 8.03016H2.87126C3.25733 8.02884 3.56962 7.71607 3.57094 7.32941C3.57226 6.94011 3.25865 6.6247 2.87126 6.62338H2.74213C4.55262 3.54979 7.90996 1.45539 12.2571 1.41181L12.2571 1.40813ZM7.61212 6.6197C7.22342 6.62102 6.91112 6.93775 6.91244 7.32573C6.91376 7.71239 7.22605 8.02516 7.61212 8.02648H9.85878C10.2475 8.0278 10.5624 7.71371 10.5637 7.32573C10.565 6.93511 10.2488 6.61703 9.85878 6.6197H7.61212ZM6.59094 13.3752H8.0641C8.93376 13.3752 9.30273 13.9506 9.40815 14.1789L10.3885 15.9407C10.4359 16.0278 10.4939 16.1136 10.5545 16.2007L8.41195 19.4221L5.4564 14.0483C5.77001 13.9375 5.9993 13.7448 6.17059 13.6181C6.42227 13.4307 6.54745 13.3753 6.59225 13.3753L6.59094 13.3752ZM22.2253 16.958C22.224 16.9633 22.2227 16.966 22.22 16.9712C22.2227 16.9633 22.2121 16.9765 22.2148 16.9712C22.22 16.966 22.22 16.9633 22.2227 16.958H22.2253ZM11.6073 17.1613C12.0672 17.4292 12.6219 17.61 13.2676 17.61H16.0426V20.9264C15.4207 22.7792 14.6472 23.7822 13.9409 24.2401C13.2215 24.7073 12.5416 24.6994 11.8195 24.4157C11.0974 24.1319 10.3792 23.5262 9.86532 22.8214C9.41202 22.1999 9.12874 21.5031 9.06812 20.9792L11.6073 17.1613ZM17.4484 17.61H20.3104L17.4484 19.674V17.61Z" fill="black"/>
</svg>
