<svg width="241" height="61" viewBox="0 0 241 61" fill="none" xmlns="http://www.w3.org/2000/svg">
<path d="M234.81 39.7371H225.45L222.858 20.3931L213.93 39.8331H211.194L202.314 20.4411L199.722 39.7371H190.314L195.402 6.13707H204.666L212.586 24.4251L220.554 6.13707H229.77L234.81 39.7371Z" fill="black"/>
<path d="M171.71 40.6011C163.166 40.6011 157.07 35.0331 157.07 26.7771V6.13707H166.526V26.5851C166.526 29.8971 168.638 32.0091 171.71 32.0091C174.83 32.0091 176.942 29.8971 176.942 26.5851V6.13707H186.398V26.7771C186.398 35.0331 180.302 40.6011 171.71 40.6011Z" fill="black"/>
<path d="M141.516 39.7371V6.13707H150.924V39.7371H141.516Z" fill="black"/>
<path d="M125.424 31.2891H137.376V39.7371H116.016V6.13707H125.424V31.2891Z" fill="black"/>
<path d="M112.405 6.13707L100.693 26.6331V39.7371H91.2851V26.5851L79.6211 6.13707H89.8931L96.0371 18.2811L102.181 6.13707H112.405Z" fill="black"/>
<path d="M63.2842 40.601C53.0602 40.601 45.4282 33.017 45.4282 22.985C45.4282 12.905 53.0602 5.32103 63.2842 5.32103C72.0682 5.32103 78.8842 11.129 80.2762 19.625H70.8682C69.7162 16.217 66.8362 13.961 63.2842 13.961C58.5322 13.961 55.0282 17.801 55.0282 22.985C55.0282 28.169 58.5322 31.961 63.2842 31.961C67.0282 31.961 69.9562 29.513 70.9162 25.769H80.3722C79.0762 34.601 72.2122 40.601 63.2842 40.601Z" fill="black"/>
<path d="M31.2656 39.7371V6.13707H40.6736V39.7371H31.2656Z" fill="black"/>
<path d="M21.264 22.025C24.432 23.513 26.4 26.537 26.4 30.185C26.4 35.657 21.696 39.785 15.504 39.785H0V6.18504H15.168C21.12 6.18504 25.488 9.78504 25.488 14.777C25.488 17.753 23.808 20.441 21.264 22.025ZM16.704 16.313C16.704 14.537 15.504 13.385 13.584 13.385H8.88V19.241H13.584C15.504 19.241 16.704 18.041 16.704 16.313ZM13.92 32.153C15.936 32.153 17.232 30.905 17.232 29.081C17.232 27.305 15.936 26.057 13.92 26.057H8.88V32.153H13.92Z" fill="black"/>
<path d="M235.301 5.76705V2.09801H237.16C237.31 2.09801 237.472 2.1411 237.648 2.22727C237.823 2.31013 237.973 2.43939 238.095 2.61506C238.221 2.78741 238.284 3.00616 238.284 3.27131C238.284 3.53977 238.219 3.76847 238.09 3.95739C237.961 4.14299 237.803 4.28385 237.618 4.37997C237.436 4.47609 237.263 4.52415 237.101 4.52415H235.758V3.92756H236.852C236.962 3.92756 237.079 3.87287 237.205 3.76349C237.334 3.65412 237.399 3.49006 237.399 3.27131C237.399 3.04593 237.334 2.89347 237.205 2.81392C237.079 2.73438 236.968 2.6946 236.872 2.6946H236.107V5.76705H235.301ZM237.518 4.03693L238.433 5.76705H237.548L236.653 4.03693H237.518ZM236.693 7.95455C236.143 7.95455 235.628 7.8518 235.147 7.64631C234.666 7.44081 234.244 7.15578 233.879 6.79119C233.515 6.42661 233.23 6.00402 233.024 5.52344C232.819 5.04285 232.716 4.52746 232.716 3.97727C232.716 3.42708 232.819 2.91169 233.024 2.43111C233.23 1.95052 233.515 1.52794 233.879 1.16335C234.244 0.798769 234.666 0.513731 235.147 0.308239C235.628 0.102746 236.143 0 236.693 0C237.243 0 237.759 0.102746 238.239 0.308239C238.72 0.513731 239.142 0.798769 239.507 1.16335C239.872 1.52794 240.157 1.95052 240.362 2.43111C240.568 2.91169 240.67 3.42708 240.67 3.97727C240.67 4.52746 240.568 5.04285 240.362 5.52344C240.157 6.00402 239.872 6.42661 239.507 6.79119C239.142 7.15578 238.72 7.44081 238.239 7.64631C237.759 7.8518 237.243 7.95455 236.693 7.95455ZM236.693 7C237.25 7 237.757 6.86411 238.214 6.59233C238.672 6.32055 239.036 5.95597 239.308 5.49858C239.58 5.04119 239.716 4.53409 239.716 3.97727C239.716 3.42045 239.58 2.91335 239.308 2.45597C239.036 1.99858 238.672 1.634 238.214 1.36222C237.757 1.09044 237.25 0.954545 236.693 0.954545C236.136 0.954545 235.629 1.09044 235.172 1.36222C234.714 1.634 234.35 1.99858 234.078 2.45597C233.806 2.91335 233.67 3.42045 233.67 3.97727C233.67 4.53409 233.806 5.04119 234.078 5.49858C234.35 5.95597 234.714 6.32055 235.172 6.59233C235.629 6.86411 236.136 7 236.693 7Z" fill="black"/>
<path d="M230.628 57.393C229.74 57.393 229.06 57.161 228.588 56.697C228.124 56.225 227.892 55.509 227.892 54.549V50.997H229.128V54.477C229.128 54.853 229.18 55.177 229.284 55.449C229.396 55.721 229.564 55.929 229.788 56.073C230.012 56.217 230.296 56.289 230.64 56.289C231 56.289 231.288 56.217 231.504 56.073C231.728 55.921 231.888 55.709 231.984 55.437C232.088 55.165 232.14 54.845 232.14 54.477V50.997H233.376V54.549C233.376 55.525 233.136 56.245 232.656 56.709C232.184 57.165 231.508 57.393 230.628 57.393Z" fill="black"/>
<path d="M217.955 57.321V50.997H219.119L219.191 51.741C219.335 51.533 219.495 51.373 219.671 51.261C219.855 51.141 220.051 51.053 220.259 50.997C220.467 50.941 220.679 50.913 220.895 50.913C221.319 50.913 221.667 51.001 221.939 51.177C222.219 51.353 222.435 51.593 222.587 51.897C222.739 51.681 222.911 51.501 223.103 51.357C223.295 51.205 223.507 51.093 223.739 51.021C223.971 50.949 224.219 50.913 224.483 50.913C224.955 50.913 225.335 51.017 225.623 51.225C225.919 51.425 226.131 51.697 226.259 52.041C226.395 52.385 226.463 52.781 226.463 53.229V57.321H225.215V53.721C225.215 53.529 225.207 53.337 225.191 53.145C225.175 52.953 225.127 52.773 225.047 52.605C224.975 52.429 224.867 52.289 224.723 52.185C224.587 52.073 224.391 52.017 224.135 52.017C223.887 52.017 223.679 52.073 223.511 52.185C223.351 52.297 223.219 52.449 223.115 52.641C223.019 52.825 222.947 53.025 222.899 53.241C222.859 53.457 222.839 53.673 222.839 53.889V57.321H221.591V53.709C221.591 53.525 221.583 53.337 221.567 53.145C221.551 52.953 221.511 52.773 221.447 52.605C221.383 52.429 221.275 52.289 221.123 52.185C220.979 52.073 220.783 52.017 220.535 52.017C220.175 52.017 219.895 52.121 219.695 52.329C219.503 52.529 219.371 52.777 219.299 53.073C219.227 53.361 219.191 53.637 219.191 53.901V57.321H217.955Z" fill="black"/>
<path d="M213.397 57.321V50.997H214.561L214.621 51.909C214.781 51.661 214.965 51.465 215.173 51.321C215.381 51.177 215.609 51.073 215.857 51.009C216.105 50.945 216.365 50.913 216.637 50.913C216.709 50.913 216.777 50.913 216.841 50.913C216.905 50.913 216.965 50.913 217.021 50.913V52.101H216.637C216.181 52.101 215.801 52.193 215.497 52.377C215.201 52.561 214.981 52.817 214.837 53.145C214.701 53.473 214.633 53.849 214.633 54.273V57.321H213.397Z" fill="black"/>
<path d="M209.068 57.393C208.412 57.393 207.856 57.261 207.4 56.997C206.944 56.725 206.596 56.345 206.356 55.857C206.124 55.369 206.008 54.805 206.008 54.165C206.008 53.517 206.128 52.953 206.368 52.473C206.608 51.985 206.956 51.605 207.412 51.333C207.868 51.053 208.424 50.913 209.08 50.913C209.736 50.913 210.292 51.053 210.748 51.333C211.204 51.605 211.548 51.985 211.78 52.473C212.012 52.961 212.128 53.529 212.128 54.177C212.128 54.809 212.008 55.369 211.768 55.857C211.536 56.345 211.192 56.725 210.736 56.997C210.288 57.261 209.732 57.393 209.068 57.393ZM209.068 56.289C209.5 56.289 209.848 56.193 210.112 56.001C210.384 55.809 210.584 55.553 210.712 55.233C210.84 54.905 210.904 54.549 210.904 54.165C210.904 53.781 210.84 53.429 210.712 53.109C210.584 52.789 210.384 52.533 210.112 52.341C209.848 52.141 209.5 52.041 209.068 52.041C208.644 52.041 208.296 52.141 208.024 52.341C207.752 52.533 207.552 52.789 207.424 53.109C207.304 53.429 207.244 53.781 207.244 54.165C207.244 54.557 207.304 54.913 207.424 55.233C207.552 55.553 207.752 55.809 208.024 56.001C208.296 56.193 208.644 56.289 209.068 56.289Z" fill="black"/>
<path d="M202.489 57.321V52.101H201.481V50.997H202.489V50.361C202.489 49.881 202.557 49.493 202.693 49.197C202.837 48.893 203.057 48.669 203.353 48.525C203.657 48.381 204.053 48.309 204.541 48.309H205.369V49.401H204.685C204.437 49.401 204.241 49.445 204.097 49.533C203.961 49.613 203.865 49.737 203.809 49.905C203.753 50.065 203.725 50.261 203.725 50.493V50.997H205.369V52.101H203.725V57.321H202.489Z" fill="black"/>
<path d="M199.485 57.393C198.805 57.393 198.317 57.209 198.021 56.841C197.733 56.465 197.589 55.941 197.589 55.269V52.101H196.581V50.997H197.589V49.161H198.825V50.997H200.757V52.101H198.825V55.065C198.825 55.289 198.845 55.493 198.885 55.677C198.933 55.861 199.021 56.005 199.149 56.109C199.277 56.213 199.461 56.269 199.701 56.277C199.885 56.277 200.045 56.245 200.181 56.181C200.325 56.117 200.441 56.045 200.529 55.965L201.009 56.889C200.857 57.009 200.697 57.109 200.529 57.189C200.369 57.261 200.201 57.313 200.025 57.345C199.849 57.377 199.669 57.393 199.485 57.393Z" fill="black"/>
<path d="M192.35 57.393C192.062 57.393 191.782 57.357 191.51 57.285C191.246 57.205 191.01 57.089 190.802 56.937C190.594 56.777 190.426 56.581 190.298 56.349C190.178 56.109 190.118 55.829 190.118 55.509C190.118 55.125 190.19 54.809 190.334 54.561C190.486 54.305 190.686 54.109 190.934 53.973C191.182 53.829 191.466 53.729 191.786 53.673C192.114 53.609 192.454 53.577 192.806 53.577H194.354C194.354 53.265 194.306 52.993 194.21 52.761C194.114 52.521 193.962 52.337 193.754 52.209C193.554 52.073 193.286 52.005 192.95 52.005C192.75 52.005 192.558 52.029 192.374 52.077C192.198 52.117 192.046 52.185 191.918 52.281C191.79 52.377 191.702 52.505 191.654 52.665H190.358C190.406 52.361 190.514 52.101 190.682 51.885C190.85 51.661 191.058 51.477 191.306 51.333C191.554 51.189 191.818 51.085 192.098 51.021C192.386 50.949 192.678 50.913 192.974 50.913C193.886 50.913 194.542 51.181 194.942 51.717C195.35 52.245 195.554 52.973 195.554 53.901V57.321H194.486L194.438 56.517C194.254 56.765 194.034 56.953 193.778 57.081C193.53 57.209 193.282 57.293 193.034 57.333C192.786 57.373 192.558 57.393 192.35 57.393ZM192.542 56.349C192.902 56.349 193.218 56.289 193.49 56.169C193.762 56.041 193.974 55.861 194.126 55.629C194.278 55.389 194.354 55.109 194.354 54.789V54.525H193.226C192.994 54.525 192.766 54.533 192.542 54.549C192.326 54.557 192.126 54.589 191.942 54.645C191.766 54.693 191.622 54.777 191.51 54.897C191.406 55.017 191.354 55.189 191.354 55.413C191.354 55.629 191.41 55.805 191.522 55.941C191.634 56.077 191.782 56.181 191.966 56.253C192.15 56.317 192.342 56.349 192.542 56.349Z" fill="black"/>
<path d="M187.568 57.321V48.837H188.804V57.321H187.568Z" fill="black"/>
<path d="M180.156 57.321V48.837H183.216C183.848 48.837 184.392 48.937 184.848 49.137C185.312 49.337 185.668 49.649 185.916 50.073C186.164 50.489 186.288 51.029 186.288 51.693C186.288 52.333 186.144 52.869 185.856 53.301C185.576 53.733 185.192 54.061 184.704 54.285C184.216 54.501 183.66 54.609 183.036 54.609H181.428V57.321H180.156ZM181.428 53.457H182.988C183.596 53.457 184.084 53.317 184.452 53.037C184.82 52.749 185.004 52.289 185.004 51.657C185.004 51.105 184.852 50.693 184.548 50.421C184.244 50.141 183.784 50.001 183.168 50.001H181.428V53.457Z" fill="black"/>
<path d="M174.208 57.393C173.528 57.393 173.04 57.209 172.744 56.841C172.456 56.465 172.312 55.941 172.312 55.269V52.101H171.304V50.997H172.312V49.161H173.548V50.997H175.48V52.101H173.548V55.065C173.548 55.289 173.568 55.493 173.608 55.677C173.656 55.861 173.744 56.005 173.872 56.109C174 56.213 174.184 56.269 174.424 56.277C174.608 56.277 174.768 56.245 174.904 56.181C175.048 56.117 175.164 56.045 175.252 55.965L175.732 56.889C175.58 57.009 175.42 57.109 175.252 57.189C175.092 57.261 174.924 57.313 174.748 57.345C174.572 57.377 174.392 57.393 174.208 57.393Z" fill="black"/>
<path d="M167.653 57.393C166.989 57.393 166.433 57.257 165.985 56.985C165.537 56.713 165.197 56.337 164.965 55.857C164.741 55.369 164.629 54.809 164.629 54.177C164.629 53.537 164.745 52.973 164.977 52.485C165.217 51.997 165.561 51.613 166.009 51.333C166.465 51.053 167.013 50.913 167.653 50.913C168.141 50.913 168.565 51.005 168.925 51.189C169.285 51.365 169.581 51.605 169.813 51.909C170.053 52.213 170.229 52.553 170.341 52.929C170.453 53.297 170.501 53.681 170.485 54.081C170.485 54.169 170.481 54.253 170.473 54.333C170.465 54.413 170.457 54.497 170.449 54.585H165.877C165.901 54.905 165.981 55.197 166.117 55.461C166.261 55.725 166.461 55.937 166.717 56.097C166.973 56.249 167.289 56.325 167.665 56.325C167.873 56.325 168.073 56.301 168.265 56.253C168.465 56.197 168.641 56.113 168.793 56.001C168.953 55.881 169.065 55.729 169.129 55.545H170.377C170.273 55.969 170.085 56.321 169.813 56.601C169.549 56.873 169.225 57.073 168.841 57.201C168.465 57.329 168.069 57.393 167.653 57.393ZM165.901 53.601H169.261C169.253 53.289 169.181 53.013 169.045 52.773C168.909 52.525 168.721 52.333 168.481 52.197C168.241 52.053 167.953 51.981 167.617 51.981C167.249 51.981 166.941 52.057 166.693 52.209C166.453 52.361 166.265 52.561 166.129 52.809C166.001 53.049 165.925 53.313 165.901 53.601Z" fill="black"/>
<path d="M162.104 57.321V48.837H163.34V57.321H162.104Z" fill="black"/>
<path d="M155.705 57.321V48.837H156.941V53.625H157.961L159.737 50.997H161.129L159.053 54.009L161.309 57.321H159.857L158.057 54.717H156.941V57.321H155.705Z" fill="black"/>
<path d="M152.94 57.321V50.997H154.176V57.321H152.94ZM153.552 50.157C153.312 50.157 153.116 50.085 152.964 49.941C152.82 49.789 152.748 49.597 152.748 49.365C152.748 49.133 152.824 48.945 152.976 48.801C153.128 48.649 153.32 48.573 153.552 48.573C153.768 48.573 153.956 48.649 154.116 48.801C154.284 48.945 154.368 49.133 154.368 49.365C154.368 49.597 154.288 49.789 154.128 49.941C153.976 50.085 153.784 50.157 153.552 50.157Z" fill="black"/>
<path d="M149.186 57.393C148.89 57.393 148.594 57.365 148.298 57.309C148.002 57.253 147.726 57.153 147.47 57.009C147.214 56.865 146.998 56.673 146.822 56.433C146.646 56.185 146.534 55.881 146.486 55.521H147.746C147.81 55.713 147.922 55.869 148.082 55.989C148.25 56.109 148.434 56.197 148.634 56.253C148.842 56.309 149.046 56.337 149.246 56.337C149.366 56.337 149.498 56.329 149.642 56.313C149.794 56.297 149.938 56.261 150.074 56.205C150.21 56.149 150.322 56.069 150.41 55.965C150.498 55.853 150.542 55.705 150.542 55.521C150.542 55.377 150.502 55.257 150.422 55.161C150.35 55.065 150.246 54.989 150.11 54.933C149.982 54.869 149.826 54.821 149.642 54.789C149.282 54.709 148.894 54.633 148.478 54.561C148.07 54.481 147.71 54.345 147.398 54.153C147.286 54.081 147.186 54.001 147.098 53.913C147.01 53.817 146.934 53.709 146.87 53.589C146.806 53.469 146.758 53.341 146.726 53.205C146.694 53.069 146.678 52.921 146.678 52.761C146.678 52.433 146.742 52.153 146.87 51.921C147.006 51.689 147.19 51.501 147.422 51.357C147.654 51.205 147.918 51.093 148.214 51.021C148.51 50.949 148.822 50.913 149.15 50.913C149.574 50.913 149.958 50.981 150.302 51.117C150.646 51.253 150.93 51.453 151.154 51.717C151.378 51.981 151.51 52.313 151.55 52.713H150.386C150.338 52.497 150.198 52.325 149.966 52.197C149.742 52.061 149.458 51.993 149.114 51.993C148.994 51.993 148.862 52.001 148.718 52.017C148.582 52.033 148.45 52.069 148.322 52.125C148.194 52.181 148.09 52.261 148.01 52.365C147.93 52.461 147.89 52.589 147.89 52.749C147.89 52.901 147.926 53.029 147.998 53.133C148.078 53.237 148.19 53.321 148.334 53.385C148.486 53.449 148.658 53.501 148.85 53.541C149.122 53.605 149.414 53.665 149.726 53.721C150.046 53.777 150.306 53.837 150.506 53.901C150.77 53.973 150.994 54.077 151.178 54.213C151.37 54.349 151.514 54.521 151.61 54.729C151.714 54.937 151.766 55.189 151.766 55.485C151.766 55.869 151.69 56.185 151.538 56.433C151.386 56.673 151.182 56.865 150.926 57.009C150.678 57.153 150.398 57.253 150.086 57.309C149.782 57.365 149.482 57.393 149.186 57.393Z" fill="black"/>
<path d="M144.057 57.321V50.997H145.293V57.321H144.057ZM144.669 50.157C144.429 50.157 144.233 50.085 144.081 49.941C143.937 49.789 143.865 49.597 143.865 49.365C143.865 49.133 143.941 48.945 144.093 48.801C144.245 48.649 144.437 48.573 144.669 48.573C144.885 48.573 145.073 48.649 145.233 48.801C145.401 48.945 145.485 49.133 145.485 49.365C145.485 49.597 145.405 49.789 145.245 49.941C145.093 50.085 144.901 50.157 144.669 50.157Z" fill="black"/>
<path d="M136.339 57.321V48.837H139.567C139.975 48.837 140.347 48.873 140.683 48.945C141.027 49.009 141.323 49.125 141.571 49.293C141.819 49.453 142.007 49.673 142.135 49.953C142.271 50.225 142.339 50.569 142.339 50.985C142.339 51.393 142.247 51.761 142.063 52.089C141.879 52.409 141.599 52.649 141.223 52.809C141.727 52.921 142.107 53.149 142.363 53.493C142.627 53.837 142.759 54.289 142.759 54.849C142.759 55.329 142.671 55.729 142.495 56.049C142.319 56.369 142.075 56.621 141.763 56.805C141.451 56.989 141.091 57.121 140.683 57.201C140.275 57.281 139.839 57.321 139.375 57.321H136.339ZM137.611 56.157H139.423C139.663 56.157 139.903 56.145 140.143 56.121C140.383 56.089 140.603 56.029 140.803 55.941C141.011 55.853 141.175 55.721 141.295 55.545C141.423 55.369 141.487 55.133 141.487 54.837C141.487 54.589 141.439 54.385 141.343 54.225C141.247 54.057 141.119 53.925 140.959 53.829C140.799 53.733 140.611 53.665 140.395 53.625C140.187 53.585 139.971 53.565 139.747 53.565H137.611V56.157ZM137.611 52.473H139.219C139.491 52.473 139.739 52.449 139.963 52.401C140.195 52.353 140.395 52.273 140.563 52.161C140.731 52.049 140.859 51.909 140.947 51.741C141.043 51.565 141.091 51.353 141.091 51.105C141.099 50.777 141.027 50.537 140.875 50.385C140.731 50.225 140.535 50.121 140.287 50.073C140.039 50.017 139.767 49.989 139.471 49.989H137.611V52.473Z" fill="black"/>
<path d="M125.67 57.321V50.997H126.846L126.906 51.885C127.066 51.653 127.258 51.469 127.482 51.333C127.706 51.189 127.946 51.085 128.202 51.021C128.458 50.949 128.706 50.913 128.946 50.913C129.554 50.913 130.03 51.045 130.374 51.309C130.726 51.565 130.974 51.913 131.118 52.353C131.27 52.785 131.346 53.277 131.346 53.829V57.321H130.098V54.081C130.098 53.825 130.082 53.573 130.05 53.325C130.018 53.077 129.95 52.857 129.846 52.665C129.75 52.465 129.61 52.309 129.426 52.197C129.242 52.077 128.994 52.017 128.682 52.017C128.298 52.017 127.974 52.121 127.71 52.329C127.446 52.537 127.246 52.817 127.11 53.169C126.974 53.521 126.906 53.917 126.906 54.357V57.321H125.67Z" fill="black"/>
<path d="M122.904 57.321V50.997H124.14V57.321H122.904ZM123.516 50.157C123.276 50.157 123.08 50.085 122.928 49.941C122.784 49.789 122.712 49.597 122.712 49.365C122.712 49.133 122.788 48.945 122.94 48.801C123.092 48.649 123.284 48.573 123.516 48.573C123.732 48.573 123.92 48.649 124.08 48.801C124.248 48.945 124.332 49.133 124.332 49.365C124.332 49.597 124.252 49.789 124.092 49.941C123.94 50.085 123.748 50.157 123.516 50.157Z" fill="black"/>
<path d="M115.756 57.321V50.997H116.932L116.992 51.885C117.152 51.653 117.344 51.469 117.568 51.333C117.792 51.189 118.032 51.085 118.288 51.021C118.544 50.949 118.792 50.913 119.032 50.913C119.64 50.913 120.116 51.045 120.46 51.309C120.812 51.565 121.06 51.913 121.204 52.353C121.356 52.785 121.432 53.277 121.432 53.829V57.321H120.184V54.081C120.184 53.825 120.168 53.573 120.136 53.325C120.104 53.077 120.036 52.857 119.932 52.665C119.836 52.465 119.696 52.309 119.512 52.197C119.328 52.077 119.08 52.017 118.768 52.017C118.384 52.017 118.06 52.121 117.796 52.329C117.532 52.537 117.332 52.817 117.196 53.169C117.06 53.521 116.992 53.917 116.992 54.357V57.321H115.756Z" fill="black"/>
<path d="M112.834 51.585L112.486 51.093C112.598 51.013 112.71 50.917 112.822 50.805C112.934 50.693 113.034 50.573 113.122 50.445C113.218 50.309 113.282 50.181 113.314 50.061C113.098 50.045 112.918 49.969 112.774 49.833C112.63 49.697 112.558 49.517 112.558 49.293C112.558 49.029 112.638 48.833 112.798 48.705C112.958 48.569 113.158 48.501 113.398 48.501C113.694 48.501 113.906 48.613 114.034 48.837C114.162 49.053 114.226 49.297 114.226 49.569C114.226 49.865 114.158 50.153 114.022 50.433C113.894 50.713 113.722 50.957 113.506 51.165C113.298 51.365 113.074 51.505 112.834 51.585Z" fill="black"/>
<path d="M108.38 57.393C107.716 57.393 107.16 57.257 106.712 56.985C106.264 56.713 105.924 56.337 105.692 55.857C105.468 55.369 105.356 54.809 105.356 54.177C105.356 53.537 105.472 52.973 105.704 52.485C105.944 51.997 106.288 51.613 106.736 51.333C107.192 51.053 107.74 50.913 108.38 50.913C108.868 50.913 109.292 51.005 109.652 51.189C110.012 51.365 110.308 51.605 110.54 51.909C110.78 52.213 110.956 52.553 111.068 52.929C111.18 53.297 111.228 53.681 111.212 54.081C111.212 54.169 111.208 54.253 111.2 54.333C111.192 54.413 111.184 54.497 111.176 54.585H106.604C106.628 54.905 106.708 55.197 106.844 55.461C106.988 55.725 107.188 55.937 107.444 56.097C107.7 56.249 108.016 56.325 108.392 56.325C108.6 56.325 108.8 56.301 108.992 56.253C109.192 56.197 109.368 56.113 109.52 56.001C109.68 55.881 109.792 55.729 109.856 55.545H111.104C111 55.969 110.812 56.321 110.54 56.601C110.276 56.873 109.952 57.073 109.568 57.201C109.192 57.329 108.796 57.393 108.38 57.393ZM106.628 53.601H109.988C109.98 53.289 109.908 53.013 109.772 52.773C109.636 52.525 109.448 52.333 109.208 52.197C108.968 52.053 108.68 51.981 108.344 51.981C107.976 51.981 107.668 52.057 107.42 52.209C107.18 52.361 106.992 52.561 106.856 52.809C106.728 53.049 106.652 53.313 106.628 53.601Z" fill="black"/>
<path d="M101.149 60.177C100.661 60.177 100.189 60.109 99.7334 59.973C99.2774 59.845 98.8614 59.617 98.4854 59.289L98.9774 58.305C99.2654 58.537 99.5814 58.721 99.9254 58.857C100.277 58.993 100.649 59.061 101.041 59.061C101.689 59.061 102.157 58.885 102.445 58.533C102.733 58.181 102.877 57.721 102.877 57.153V56.541C102.733 56.741 102.553 56.909 102.337 57.045C102.129 57.173 101.897 57.265 101.641 57.321C101.385 57.385 101.125 57.417 100.861 57.417C100.245 57.417 99.7534 57.293 99.3854 57.045C99.0254 56.789 98.7654 56.441 98.6054 56.001C98.4534 55.561 98.3774 55.053 98.3774 54.477V50.997H99.6254V54.177C99.6254 54.433 99.6414 54.689 99.6734 54.945C99.7054 55.201 99.7734 55.433 99.8774 55.641C99.9814 55.841 100.133 56.005 100.333 56.133C100.533 56.253 100.805 56.313 101.149 56.313C101.581 56.313 101.921 56.209 102.169 56.001C102.417 55.785 102.593 55.505 102.697 55.161C102.801 54.809 102.853 54.429 102.853 54.021V50.997H104.089V57.021C104.089 57.517 104.029 57.961 103.909 58.353C103.797 58.745 103.617 59.077 103.369 59.349C103.129 59.621 102.825 59.825 102.457 59.961C102.097 60.105 101.661 60.177 101.149 60.177Z" fill="black"/>
<path d="M95.5997 57.321V50.997H96.8357V57.321H95.5997ZM96.2117 50.157C95.9717 50.157 95.7757 50.085 95.6237 49.941C95.4797 49.789 95.4077 49.597 95.4077 49.365C95.4077 49.133 95.4837 48.945 95.6357 48.801C95.7877 48.649 95.9797 48.573 96.2117 48.573C96.4277 48.573 96.6157 48.649 96.7757 48.801C96.9437 48.945 97.0277 49.133 97.0277 49.365C97.0277 49.597 96.9478 49.789 96.7878 49.941C96.6358 50.085 96.4437 50.157 96.2117 50.157Z" fill="black"/>
<path d="M89.2013 57.321V48.837H90.4373V53.625H91.4573L93.2333 50.997H94.6253L92.5493 54.009L94.8053 57.321H93.3533L91.5533 54.717H90.4373V57.321H89.2013Z" fill="black"/>
<path d="M84.6427 57.321V50.997H85.8067L85.8667 51.909C86.0267 51.661 86.2107 51.465 86.4187 51.321C86.6267 51.177 86.8547 51.073 87.1027 51.009C87.3507 50.945 87.6107 50.913 87.8827 50.913C87.9547 50.913 88.0227 50.913 88.0867 50.913C88.1507 50.913 88.2107 50.913 88.2667 50.913V52.101H87.8827C87.4267 52.101 87.0467 52.193 86.7427 52.377C86.4467 52.561 86.2267 52.817 86.0827 53.145C85.9467 53.473 85.8787 53.849 85.8787 54.273V57.321H84.6427Z" fill="black"/>
<path d="M80.4055 57.393C79.5175 57.393 78.8375 57.161 78.3655 56.697C77.9015 56.225 77.6695 55.509 77.6695 54.549V50.997H78.9055V54.477C78.9055 54.853 78.9575 55.177 79.0615 55.449C79.1735 55.721 79.3415 55.929 79.5655 56.073C79.7895 56.217 80.0735 56.289 80.4175 56.289C80.7775 56.289 81.0655 56.217 81.2815 56.073C81.5055 55.921 81.6655 55.709 81.7615 55.437C81.8655 55.165 81.9175 54.845 81.9175 54.477V50.997H83.1535V54.549C83.1535 55.525 82.9135 56.245 82.4335 56.709C81.9615 57.165 81.2855 57.393 80.4055 57.393ZM81.7975 50.121C81.5815 50.121 81.3975 50.053 81.2455 49.917C81.1015 49.781 81.0295 49.597 81.0295 49.365C81.0295 49.133 81.1015 48.949 81.2455 48.813C81.3975 48.669 81.5815 48.597 81.7975 48.597C82.0135 48.597 82.1975 48.669 82.3495 48.813C82.5015 48.949 82.5775 49.133 82.5775 49.365C82.5775 49.597 82.5015 49.781 82.3495 49.917C82.1975 50.053 82.0135 50.121 81.7975 50.121ZM79.0135 50.121C78.7975 50.121 78.6135 50.053 78.4615 49.917C78.3095 49.781 78.2335 49.597 78.2335 49.365C78.2335 49.133 78.3095 48.949 78.4615 48.813C78.6135 48.669 78.7975 48.597 79.0135 48.597C79.2295 48.597 79.4135 48.669 79.5655 48.813C79.7175 48.949 79.7935 49.133 79.7935 49.365C79.7935 49.597 79.7175 49.781 79.5655 49.917C79.4215 50.053 79.2375 50.121 79.0135 50.121Z" fill="black"/>
<path d="M72.832 57.321V50.001H70.144V48.837H76.78V50.001H74.104V57.321H72.832Z" fill="black"/>
</svg>
