<svg width="27" height="25" viewBox="0 0 27 25" fill="none" xmlns="http://www.w3.org/2000/svg">
<path d="M0.61 1.9722e-05C0.273097 1.9722e-05 0 0.273126 0 0.61002C0 0.946914 0.273097 1.22002 0.61 1.22002H3.77437L6.98639 16.4129C6.95364 16.7604 7.27635 17.0976 7.625 17.08H22.875C23.1973 17.0846 23.4937 16.7924 23.4937 16.47C23.4937 16.1477 23.1973 15.8555 22.875 15.86H8.12062L7.60594 13.42H24.095C24.3681 13.417 24.6262 13.21 24.6859 12.9435L26.8209 3.79346C26.9003 3.43944 26.5928 3.05261 26.23 3.05002H5.41375L4.87048 0.476582C4.81003 0.206968 4.5463 -0.00233793 4.27 1.9722e-05H0.61ZM5.67111 4.27002H25.4675L23.6089 12.2H7.34861L5.67111 4.27002ZM10.98 18.91C9.47123 18.91 8.235 20.1462 8.235 21.655C8.235 23.1638 9.47123 24.4 10.98 24.4C12.4888 24.4 13.725 23.1638 13.725 21.655C13.725 20.1462 12.4888 18.91 10.98 18.91ZM19.52 18.91C18.0112 18.91 16.775 20.1462 16.775 21.655C16.775 23.1638 18.0112 24.4 19.52 24.4C21.0288 24.4 22.265 23.1638 22.265 21.655C22.265 20.1462 21.0288 18.91 19.52 18.91ZM10.98 20.13C11.8295 20.13 12.505 20.8055 12.505 21.655C12.505 22.5045 11.8295 23.18 10.98 23.18C10.1306 23.18 9.455 22.5045 9.455 21.655C9.455 20.8055 10.1306 20.13 10.98 20.13ZM19.52 20.13C20.3695 20.13 21.045 20.8055 21.045 21.655C21.045 22.5045 20.3695 23.18 19.52 23.18C18.6706 23.18 17.995 22.5045 17.995 21.655C17.995 20.8055 18.6706 20.13 19.52 20.13Z" fill="black"/>
</svg>
