<svg width="175" height="184" viewBox="0 0 175 184" fill="none" xmlns="http://www.w3.org/2000/svg">
<path d="M172.802 4.39698C173.385 4.39698 173.944 4.16536 174.356 3.75306C174.768 3.34076 175 2.78157 175 2.19849C175 1.61542 174.768 1.05622 174.356 0.643924C173.944 0.231627 173.385 0 172.802 0H2.19849C1.61542 0 1.05622 0.231627 0.643924 0.643924C0.231627 1.05622 0 1.61542 0 2.19849C0 2.78157 0.231627 3.34076 0.643924 3.75306C1.05622 4.16536 1.61542 4.39698 2.19849 4.39698H17.1482V106.847H2.19849C1.61542 106.847 1.05622 107.078 0.643924 107.491C0.231627 107.903 0 108.462 0 109.045C0 109.628 0.231627 110.187 0.643924 110.6C1.05622 111.012 1.61542 111.244 2.19849 111.244H85.3015V144.661H84.8618L52.9837 176.759C52.7317 176.948 52.5232 177.189 52.3725 177.465C52.2217 177.742 52.1321 178.048 52.1098 178.362C52.0875 178.676 52.1329 178.991 52.2431 179.286C52.3532 179.581 52.5255 179.849 52.7482 180.072C52.9709 180.295 53.2389 180.467 53.534 180.577C53.8291 180.687 54.1444 180.733 54.4586 180.711C54.7728 180.688 55.0785 180.599 55.3551 180.448C55.6316 180.297 55.8726 180.089 56.0616 179.837L85.3015 150.597V181.595C85.3015 182.179 85.5331 182.738 85.9454 183.15C86.3577 183.562 86.9169 183.794 87.5 183.794C88.0831 183.794 88.6423 183.562 89.0546 183.15C89.4669 182.738 89.6985 182.179 89.6985 181.595V150.597L118.938 179.837C119.362 180.154 119.885 180.308 120.413 180.271C120.941 180.233 121.438 180.007 121.812 179.632C122.186 179.258 122.413 178.762 122.45 178.234C122.488 177.706 122.334 177.182 122.016 176.759L90.1382 144.881H89.6985V111.244H172.802C173.385 111.244 173.944 111.012 174.356 110.6C174.768 110.187 175 109.628 175 109.045C175 108.462 174.768 107.903 174.356 107.491C173.944 107.078 173.385 106.847 172.802 106.847H158.072V4.39698H172.802ZM153.675 106.847H21.3254V4.39698H153.675V106.847Z" fill="black"/>
<path d="M50.5657 35.1759H76.0682C76.6513 35.1759 77.2105 34.9443 77.6228 34.532C78.0351 34.1197 78.2667 33.5605 78.2667 32.9774C78.2667 32.3943 78.0351 31.8351 77.6228 31.4229C77.2105 31.0106 76.6513 30.7789 76.0682 30.7789H50.5657C49.9826 30.7789 49.4234 31.0106 49.0111 31.4229C48.5988 31.8351 48.3672 32.3943 48.3672 32.9774C48.3672 33.5605 48.5988 34.1197 49.0111 34.532C49.4234 34.9443 49.9826 35.1759 50.5657 35.1759Z" fill="black"/>
<path d="M50.5657 59.3593H124.435C125.018 59.3593 125.577 59.1276 125.99 58.7153C126.402 58.303 126.634 57.7438 126.634 57.1608C126.634 56.5777 126.402 56.0185 125.99 55.6062C125.577 55.1939 125.018 54.9623 124.435 54.9623H50.5657C49.9826 54.9623 49.4234 55.1939 49.0111 55.6062C48.5988 56.0185 48.3672 56.5777 48.3672 57.1608C48.3672 57.7438 48.5988 58.303 49.0111 58.7153C49.4234 59.1276 49.9826 59.3593 50.5657 59.3593Z" fill="black"/>
<path d="M124.435 79.1458H50.5657C49.9826 79.1458 49.4234 79.3774 49.0111 79.7897C48.5988 80.202 48.3672 80.7612 48.3672 81.3442C48.3672 81.9273 48.5988 82.4865 49.0111 82.8988C49.4234 83.3111 49.9826 83.5427 50.5657 83.5427H124.435C125.018 83.5427 125.577 83.3111 125.99 82.8988C126.402 82.4865 126.634 81.9273 126.634 81.3442C126.634 80.7612 126.402 80.202 125.99 79.7897C125.577 79.3774 125.018 79.1458 124.435 79.1458Z" fill="black"/>
</svg>
