<svg width="27" height="27" viewBox="0 0 27 27" fill="none" xmlns="http://www.w3.org/2000/svg">
<path d="M15.9224 10.2611H11.0776C10.3572 10.2611 9.77117 10.8471 9.77117 11.5675V15.7999C9.77117 16.5203 10.3572 17.1063 11.0776 17.1063H15.9224C16.6428 17.1063 17.2288 16.5203 17.2288 15.7999V11.5675C17.2288 10.8471 16.6428 10.2611 15.9224 10.2611ZM16.3579 15.7999C16.3579 16.0402 16.1624 16.2354 15.9224 16.2354H11.0776C10.8376 16.2354 10.6421 16.0402 10.6421 15.7999V11.5675C10.6421 11.3273 10.8376 11.1321 11.0776 11.1321H15.9224C16.1624 11.1321 16.3579 11.3273 16.3579 11.5675V15.7999Z" fill="black"/>
<path d="M15.9224 17.9773H11.0776C10.3572 17.9773 9.77117 18.5633 9.77117 19.2838V21.5114C9.77117 21.7521 9.96616 21.9469 10.2067 21.9469C10.4471 21.9469 10.6421 21.7521 10.6421 21.5114V19.2838C10.6421 19.0435 10.8376 18.8483 11.0776 18.8483H15.9224C16.1624 18.8483 16.3579 19.0435 16.3579 19.2838V23.5161C16.3579 23.7564 16.1624 23.9516 15.9224 23.9516H11.0776C10.8376 23.9516 10.6421 23.7564 10.6421 23.5161C10.6421 23.2754 10.4471 23.0806 10.2067 23.0806C9.96616 23.0806 9.77117 23.2754 9.77117 23.5161C9.77117 24.2365 10.3572 24.8226 11.0776 24.8226H15.9224C16.6428 24.8226 17.2288 24.2365 17.2288 23.5161V19.2838C17.2288 18.5633 16.6428 17.9773 15.9224 17.9773Z" fill="black"/>
<path d="M23.5161 10.2611H19.4062C18.6858 10.2611 18.0998 10.8471 18.0998 11.5675V15.7999C18.0998 16.5203 18.6858 17.1063 19.4062 17.1063H23.5161C24.2365 17.1063 24.8226 16.5203 24.8226 15.7999V11.5675C24.8226 10.8471 24.2365 10.2611 23.5161 10.2611ZM23.9516 15.7999C23.9516 16.0402 23.7562 16.2354 23.5161 16.2354H19.4062C19.1662 16.2354 18.9708 16.0402 18.9708 15.7999V11.5675C18.9708 11.3273 19.1662 11.1321 19.4062 11.1321H23.5161C23.7562 11.1321 23.9516 11.3273 23.9516 11.5675V15.7999Z" fill="black"/>
<path d="M23.5161 17.9773H19.4062C18.6858 17.9773 18.0998 18.5633 18.0998 19.2838V23.5161C18.0998 24.2365 18.6858 24.8226 19.4062 24.8226H23.5161C24.2365 24.8226 24.8226 24.2365 24.8226 23.5161V19.2838C24.8226 18.5633 24.2365 17.9773 23.5161 17.9773ZM23.9516 23.5161C23.9516 23.7564 23.7562 23.9516 23.5161 23.9516H19.4062C19.1662 23.9516 18.9708 23.7564 18.9708 23.5161V19.2838C18.9708 19.0435 19.1662 18.8483 19.4062 18.8483H23.5161C23.7562 18.8483 23.9516 19.0435 23.9516 19.2838V23.5161Z" fill="black"/>
<path d="M7.59375 17.9773H3.48387C2.76345 17.9773 2.17742 18.5633 2.17742 19.2838V23.5161C2.17742 24.2365 2.76345 24.8226 3.48387 24.8226H7.59375C8.31417 24.8226 8.9002 24.2365 8.9002 23.5161V19.2838C8.9002 18.5633 8.31417 17.9773 7.59375 17.9773ZM8.02923 23.5161C8.02923 23.7564 7.83382 23.9516 7.59375 23.9516H3.48387C3.2438 23.9516 3.04839 23.7564 3.04839 23.5161V19.2838C3.04839 19.0435 3.2438 18.8483 3.48387 18.8483H7.59375C7.83382 18.8483 8.02923 19.0435 8.02923 19.2838V23.5161Z" fill="black"/>
<path d="M7.59375 10.2611H3.48387C2.76345 10.2611 2.17742 10.8471 2.17742 11.5675V15.7999C2.17742 16.5203 2.76345 17.1063 3.48387 17.1063H7.59375C8.31417 17.1063 8.9002 16.5203 8.9002 15.7999V11.5675C8.9002 10.8471 8.31417 10.2611 7.59375 10.2611ZM8.02923 15.7999C8.02923 16.0402 7.83382 16.2354 7.59375 16.2354H3.48387C3.2438 16.2354 3.04839 16.0402 3.04839 15.7999V11.5675C3.04839 11.3273 3.2438 11.1321 3.48387 11.1321H7.59375C7.83382 11.1321 8.02923 11.3273 8.02923 11.5675V15.7999Z" fill="black"/>
<path d="M22.8691 20.0208C22.7005 19.849 22.4245 19.846 22.2533 20.0144L21.4676 20.7839L20.698 19.9982C20.5299 19.8269 20.2534 19.8234 20.0823 19.9919C19.9104 20.1603 19.9075 20.4358 20.0759 20.6081L20.8452 21.3935L20.0597 22.1629C19.8879 22.3313 19.8849 22.6069 20.0533 22.7791C20.1386 22.8659 20.2515 22.9097 20.3644 22.9097C20.4744 22.9097 20.5845 22.8684 20.6691 22.7855L21.4548 22.016L22.2244 22.8017C22.3096 22.8884 22.4226 22.9322 22.5355 22.9322C22.6454 22.9322 22.7555 22.891 22.8402 22.808C23.012 22.6396 23.015 22.364 22.8466 22.1918L22.0772 21.4063L22.8627 20.637C23.0345 20.4686 23.0375 20.193 22.8691 20.0208Z" fill="black"/>
<path d="M25.6935 3.38861H24.8226V1.6807C24.8226 0.754019 24.0686 0 23.1419 0C22.2152 0 21.4612 0.754019 21.4612 1.6807V3.38861H20.5902V1.6807C20.5902 0.754019 19.8362 0 18.9095 0C17.9828 0 17.2288 0.754019 17.2288 1.6807V3.38861H9.77117V1.6807C9.77117 0.754019 9.01716 0 8.09048 0C7.1638 0 6.40978 0.754019 6.40978 1.6807V3.38861H5.53881V1.6807C5.53881 0.754019 4.7848 0 3.85812 0C2.93144 0 2.17742 0.754019 2.17742 1.6807V3.38861H1.30645C0.586031 3.38861 0 3.97464 0 4.69506V25.6935C0 26.414 0.586031 27 1.30645 27H25.6935C26.414 27 27 26.414 27 25.6935V4.69506C27 3.97464 26.414 3.38861 25.6935 3.38861ZM22.3322 1.6807C22.3322 1.23416 22.6953 0.870968 23.1419 0.870968C23.5884 0.870968 23.9516 1.23415 23.9516 1.6807V5.90625H22.3322L22.3322 1.6807ZM18.0998 1.6807C18.0998 1.23416 18.463 0.870968 18.9095 0.870968C19.3561 0.870968 19.7193 1.23415 19.7193 1.6807V5.90625H18.0998V1.6807ZM7.28075 1.6807C7.28075 1.23416 7.64393 0.870968 8.09048 0.870968C8.53702 0.870968 8.9002 1.23415 8.9002 1.6807V5.90625H7.28075V1.6807ZM3.04839 1.6807C3.04839 1.23416 3.41158 0.870968 3.85812 0.870968C4.30467 0.870968 4.66785 1.23415 4.66785 1.6807V5.90625H3.04839L3.04839 1.6807ZM25.6935 26.129H1.30646C1.06639 26.129 0.870972 25.9338 0.870972 25.6935V8.95464H20.6963C20.9368 8.95464 21.1318 8.75986 21.1318 8.51916C21.1318 8.27845 20.9368 8.08367 20.6963 8.08367H0.870972V4.69506C0.870972 4.45478 1.06639 4.25958 1.30646 4.25958H2.17742V6.34174C2.17742 6.58244 2.37241 6.77722 2.61291 6.77722H5.10333C5.34383 6.77722 5.53881 6.58244 5.53881 6.34174V4.25958H6.40978V6.34174C6.40978 6.58244 6.60477 6.77722 6.84526 6.77722H9.33569C9.57618 6.77722 9.77117 6.58244 9.77117 6.34174V4.25958H17.2288V6.34174C17.2288 6.58244 17.4238 6.77722 17.6643 6.77722H20.1547C20.3952 6.77722 20.5902 6.58244 20.5902 6.34174V4.25958H21.4612V6.34174C21.4612 6.58244 21.6562 6.77722 21.8967 6.77722H24.3871C24.6276 6.77722 24.8226 6.58244 24.8226 6.34174V4.25958H25.6936C25.9336 4.25958 26.129 4.45478 26.129 4.69506V8.08367H23.9948C23.7543 8.08367 23.5593 8.27845 23.5593 8.51916C23.5593 8.75986 23.7543 8.95464 23.9948 8.95464H26.129V25.6935C26.129 25.9338 25.9336 26.129 25.6935 26.129Z" fill="black"/>
</svg>
