<svg width="35" height="35" viewBox="0 0 35 35" fill="none" xmlns="http://www.w3.org/2000/svg">
<path d="M35 17.5C35 27.165 27.165 35 17.5 35C7.83502 35 0 27.165 0 17.5C0 7.83502 7.83502 0 17.5 0C27.165 0 35 7.83502 35 17.5Z" fill="#C00000"/>
<path d="M22.0037 17.5L29.9556 14.9287L25.0408 21.6609V13.3391L29.9556 20.0713L22.0037 17.5ZM22.5459 22.1789C21.5274 23.7809 20.0137 25.0103 18.2326 25.6821C16.4515 26.354 14.4994 26.4319 12.67 25.9041C10.8406 25.3764 9.23292 24.2716 8.08882 22.7559C6.94472 21.2403 6.32613 19.3958 6.32613 17.5C6.32613 15.6042 6.94472 13.7597 8.08882 12.2441C9.23292 10.7284 10.8406 9.62358 12.67 9.09585C14.4994 8.56813 16.4515 8.64604 18.2326 9.31787C20.0137 9.98971 21.5274 11.2191 22.5459 12.8211C21.5947 11.7677 20.345 11.0262 18.9616 10.6946C17.5782 10.363 16.1264 10.4568 14.7977 10.9637C13.469 11.4706 12.3261 12.3668 11.5199 13.5338C10.7137 14.7008 10.282 16.0837 10.282 17.5C10.282 18.9163 10.7137 20.2992 11.5199 21.4662C12.3261 22.6332 13.469 23.5294 14.7977 24.0363C16.1264 24.5432 17.5782 24.637 18.9616 24.3054C20.345 23.9738 21.5947 23.2323 22.5459 22.1789Z" fill="white"/>
</svg>
