<svg width="25" height="30" viewBox="0 0 25 30" fill="none" xmlns="http://www.w3.org/2000/svg">
<path d="M0 3.8625V15.6375C0 20.7375 2.88462 25.3125 7.57692 27.6L12.5 30L17.4231 27.6C22.1154 25.3125 25 20.7375 25 15.6375V3.8625L12.5 0L0 3.8625ZM22.0769 15.6375C22.0769 19.65 19.8077 23.25 16.1154 25.05L12.5 26.8125L8.88461 25.05C5.19231 23.25 2.92308 19.65 2.92308 15.6375V5.925L12.5 2.9625L22.0769 5.925V15.6375Z" fill="black"/>
<path d="M11.2799 20.096C11.0132 20.096 10.7625 20.0853 10.5279 20.064C10.2932 20.0533 10.0905 20.032 9.91986 20V14.88L8.25586 15.456V14.304L9.91986 13.744V12.56L8.25586 13.12V11.984L9.91986 11.424V8.576H11.5679V10.848L14.6399 9.792V10.928L11.5679 11.984V13.168L14.6399 12.112V13.248L11.5679 14.304V18.672C12.4532 18.64 13.1519 18.432 13.6639 18.048C14.1759 17.664 14.5385 17.1573 14.7519 16.528C14.9759 15.8987 15.0879 15.1893 15.0879 14.4H16.7039C16.7039 15.136 16.6079 15.8453 16.4159 16.528C16.2239 17.2107 15.9145 17.824 15.4879 18.368C15.0719 18.9013 14.5172 19.3227 13.8239 19.632C13.1412 19.9413 12.2932 20.096 11.2799 20.096Z" fill="black"/>
</svg>
