<svg width="69" height="60" viewBox="0 0 69 60" fill="none" xmlns="http://www.w3.org/2000/svg">
<path d="M48.9034 5.56609L49.4271 5.84683C49.9399 6.12756 50.5835 5.944 50.8672 5.43652C51.1509 4.92903 50.9654 4.29201 50.4526 4.01123L49.9071 3.7197C38.3431 -2.34852 24.9239 -0.912455 14.8646 7.44485C4.70751 15.8887 0.954552 28.8673 5.04615 41.3172L5.77712 43.5199L1.4896 41.6087C0.955026 41.3712 0.333201 41.6087 0.0931514 42.1378C-0.146898 42.6669 0.0931514 43.2823 0.627727 43.5199L7.0972 46.4029C7.10811 46.4137 7.12993 46.4029 7.14084 46.4137C7.26085 46.4676 7.39177 46.5 7.53359 46.5H7.5445C7.64269 46.5 7.72997 46.4784 7.82816 46.4569H7.86089C7.8718 46.4569 7.88271 46.4461 7.89362 46.4353C8.00271 46.3921 8.11181 46.3381 8.19909 46.2625C8.21 46.2517 8.22091 46.2517 8.23182 46.2409C8.29728 46.1761 8.36274 46.1113 8.41728 46.0249L12.3012 40.1403C12.5957 39.6652 12.4539 39.0173 11.9739 38.7042C11.4829 38.3911 10.8284 38.5207 10.5119 39.0065L7.82808 43.0557L7.04258 40.6802C3.21323 29.0623 6.7262 16.9469 16.2068 9.05377C25.5895 1.24703 38.1137 -0.0915746 48.9034 5.56609Z" fill="black"/>
<path d="M68.3895 16.4824L61.922 13.5999C61.8457 13.5675 61.7584 13.5567 61.6821 13.5351C61.6385 13.5243 61.6057 13.5135 61.5621 13.5027C61.4312 13.492 61.2894 13.5135 61.1695 13.5459H61.1586L61.0931 13.5783C60.995 13.6215 60.9077 13.6647 60.8205 13.7295C60.7768 13.7618 60.7441 13.805 60.7114 13.8482C60.6787 13.8914 60.6241 13.9238 60.5914 13.967L56.7087 19.8506C56.3924 20.3364 56.5342 20.9841 57.0141 21.2972C57.1886 21.416 57.3958 21.47 57.5921 21.47C57.9412 21.47 58.2793 21.308 58.4756 20.995L61.1476 16.9466L61.9329 19.3216C65.7611 30.9374 62.2492 43.0507 52.7714 50.9424C43.3915 58.7478 30.8712 60.0861 20.096 54.4294L19.5725 54.1487C19.0599 53.868 18.4164 54.0516 18.1328 54.559C17.8492 55.0664 18.0347 55.7033 18.5473 55.984L19.0926 56.2755C23.8369 58.7693 28.9081 60 33.9254 60C41.1129 60 48.2019 57.4738 54.1245 52.5511C64.2786 44.1087 68.0304 31.1325 63.94 18.6849L63.2093 16.4825L67.4955 18.3934C68.0299 18.6309 68.6516 18.3934 68.8915 17.8644C69.1533 17.3354 68.924 16.7199 68.3895 16.4824Z" fill="black"/>
<path d="M48.4562 15.0111H38.3662C38.3339 14.9999 38.2908 14.9999 38.2585 14.9999C38.2262 14.9999 38.1831 14.9999 38.1508 15.0111H30.8499C30.8176 14.9999 30.7745 14.9999 30.7422 14.9999C30.7099 14.9999 30.6668 14.9999 30.6345 15.0111H20.5445C19.963 15.0111 19.5 15.491 19.5 16.0825V43.9174C19.5 44.5201 19.963 45 20.5445 45H48.4555C49.037 45 49.5 44.5201 49.5 43.9174V16.0825C49.5 15.491 49.0377 15.0111 48.4562 15.0111ZM47.4117 42.8345H21.5895V17.1647H29.6982V22.9682C29.6982 23.5597 30.1612 24.0508 30.7427 24.0508H38.2587C38.8294 24.0508 39.3032 23.5597 39.3032 22.9682V17.1647H47.4119L47.4117 42.8345Z" fill="black"/>
</svg>
