<svg width="30" height="30" viewBox="0 0 30 30" fill="none" xmlns="http://www.w3.org/2000/svg">
<path d="M27.0968 6.77459H8.96566C9.21874 6.55116 9.51235 6.37839 9.83056 6.26564L10.1613 6.15557V3.87137H5.80651C5.74296 3.87137 5.68004 3.85885 5.62134 3.83454C5.56263 3.81022 5.50929 3.77458 5.46436 3.72965C5.41943 3.68471 5.38379 3.63137 5.35947 3.57267C5.33515 3.51396 5.32264 3.45104 5.32264 3.3875C5.32264 3.32396 5.33515 3.26104 5.35947 3.20233C5.38379 3.14362 5.41943 3.09028 5.46436 3.04535C5.50929 3.00042 5.56263 2.96478 5.62134 2.94046C5.68004 2.91615 5.74296 2.90363 5.80651 2.90363H10.1613V0.76777L10.0195 0.62604C9.83154 0.437976 9.04427 0.000412497 5.80651 0.000412497C4.27967 -0.0128455 2.76697 0.293624 1.36569 0.900108C0.955172 1.08769 0.607754 1.39014 0.365416 1.77092C0.123079 2.15169 -0.00380773 2.5945 8.70427e-05 3.04583V3.17531C0.00414186 3.58611 0.127581 3.98687 0.355367 4.32875C0.583153 4.67064 0.905453 4.93891 1.283 5.10086C2.58585 5.6956 3.32369 7.00238 3.65164 7.73908C3.27527 8.1554 3.02787 8.67203 2.93948 9.22625C2.85108 9.78047 2.9255 10.3484 3.15369 10.8612C3.38188 11.3739 3.75403 11.8094 4.22495 12.1147C4.69587 12.42 5.2453 12.582 5.80652 12.581H27.0968C27.8668 12.581 28.6052 12.2752 29.1497 11.7307C29.6941 11.1862 30 10.4478 30 9.67781C30 8.90783 29.6941 8.16938 29.1497 7.62492C28.6052 7.08046 27.8667 6.77459 27.0968 6.77459ZM1.68461 4.2201C1.47677 4.13409 1.29839 3.98956 1.17114 3.80409C1.04389 3.61861 0.973247 3.40017 0.967797 3.17531V3.04583C0.961712 2.7812 1.03342 2.5206 1.17403 2.29634C1.31463 2.07207 1.51796 1.894 1.75881 1.78418C3.0363 1.23263 4.41511 0.954657 5.80651 0.96814C7.9395 0.96814 8.84676 1.1614 9.19359 1.27339V1.93589H5.80651C5.42152 1.93589 5.05229 2.08882 4.78006 2.36105C4.50783 2.63328 4.3549 3.00251 4.3549 3.3875C4.3549 3.77249 4.50783 4.14171 4.78006 4.41394C5.05229 4.68617 5.42152 4.8391 5.80651 4.8391H9.19359V5.4808C8.76495 5.67711 8.07207 6.09532 7.83289 6.77459H5.8065C5.32619 6.7741 4.85335 6.89354 4.43088 7.12207C3.97422 6.16907 3.12768 4.87883 1.68461 4.2201ZM27.0968 11.6133H5.80651C5.55234 11.6133 5.30065 11.5632 5.06583 11.466C4.83101 11.3687 4.61764 11.2261 4.43792 11.0464C4.25819 10.8667 4.11562 10.6533 4.01836 10.4185C3.92109 10.1837 3.87103 9.93198 3.87103 9.6778C3.87103 9.42363 3.92109 9.17195 4.01836 8.93713C4.11562 8.70231 4.25819 8.48894 4.43792 8.30922C4.61764 8.12949 4.83101 7.98692 5.06583 7.88966C5.30065 7.79239 5.55234 7.74233 5.80651 7.74233H8.70972V10.6455H9.67748V7.74233H25.1613V10.6455H26.129V7.74233H27.0968C27.6101 7.74233 28.1024 7.94624 28.4654 8.30922C28.8283 8.67219 29.0322 9.16448 29.0322 9.6778C29.0322 10.1911 28.8283 10.6834 28.4654 11.0464C28.1024 11.4094 27.6101 11.6133 27.0968 11.6133ZM8.72676 24.1939H10.7993C11.134 24.1913 11.4577 24.0738 11.7162 23.8611C11.9747 23.6484 12.1522 23.3533 12.2192 23.0253C12.4273 22.0771 12.9177 21.2142 13.6259 20.5502L19.8387 14.7263V13.5488H18.871V14.3067L12.9639 19.8442C12.1134 20.6414 11.5243 21.6775 11.2741 22.816C11.2539 22.9284 11.1957 23.0304 11.1093 23.1051C11.0229 23.1797 10.9134 23.2225 10.7993 23.2261H8.72676C8.34518 23.2258 7.97845 23.374 7.70439 23.6396C7.43033 23.9051 7.2705 24.2669 7.25881 24.6483C7.24713 25.0297 7.3845 25.4007 7.6418 25.6825C7.89909 25.9643 8.25605 26.1348 8.63694 26.1577C9.67119 26.2238 10.6953 26.4014 11.6914 26.6874C12.0537 27.4505 12.5783 28.1253 13.2286 28.6646C13.8788 29.2039 14.639 29.5946 15.456 29.8095C16.273 30.0244 17.1271 30.0583 17.9585 29.9087C18.79 29.7592 19.5787 29.4299 20.2696 28.9438L20.5749 28.7288L20.0288 27.259C20.1766 27.1077 20.3132 26.9459 20.4375 26.7747L21.3031 27.2743L21.787 26.4361L20.9221 25.9369C21.0988 25.5368 21.2138 25.1123 21.2632 24.6778H22.2581V23.71H21.2618C21.2135 23.2754 21.0994 22.8506 20.9234 22.4502L21.787 21.9517L21.3031 21.1135L20.4359 21.614C20.1766 21.2631 19.8663 20.9528 19.5154 20.6935L20.0159 19.8263L19.1777 19.3424L18.6792 20.206C18.4656 20.1134 18.245 20.0382 18.0193 19.9811L23.7097 14.7282V13.5488H22.7419V14.3048L16.3689 20.1873L17.3425 22.8075C17.2107 22.7662 17.0736 22.7443 16.9355 22.7423C16.6837 22.7417 16.4361 22.8067 16.217 22.9308C15.9979 23.0549 15.8149 23.2339 15.6858 23.4501C15.5568 23.6663 15.4863 23.9124 15.4811 24.1641C15.476 24.4159 15.5364 24.6647 15.6564 24.886C15.7765 25.1073 15.952 25.2936 16.1659 25.4266C16.3797 25.5596 16.6244 25.6346 16.876 25.6444C17.1276 25.6542 17.3775 25.5983 17.601 25.4824C17.8245 25.3664 18.014 25.1943 18.1508 24.9829L19.403 28.3531C18.8108 28.7054 18.1502 28.927 17.4653 29.003C16.7804 29.0791 16.0872 29.0079 15.4322 28.7941C14.7771 28.5803 14.1753 28.229 13.6671 27.7636C13.1589 27.2982 12.7561 26.7296 12.4857 26.0958L12.3973 25.8888L12.1814 25.8232C11.0486 25.4792 9.87985 25.2674 8.69841 25.1919C8.56835 25.1849 8.44618 25.1273 8.35794 25.0315C8.2697 24.9357 8.22239 24.8092 8.22609 24.6791C8.22979 24.5489 8.28421 24.4253 8.37774 24.3346C8.47128 24.244 8.59652 24.1935 8.72676 24.1939ZM16.9355 24.6778C16.8398 24.6778 16.7463 24.6494 16.6667 24.5962C16.5871 24.543 16.5251 24.4675 16.4885 24.3791C16.4518 24.2906 16.4423 24.1934 16.4609 24.0995C16.4796 24.0056 16.5257 23.9194 16.5934 23.8517C16.661 23.7841 16.7472 23.738 16.8411 23.7193C16.935 23.7006 17.0323 23.7102 17.1207 23.7468C17.2091 23.7835 17.2847 23.8455 17.3378 23.9251C17.391 24.0046 17.4194 24.0982 17.4194 24.1939C17.4193 24.3222 17.3683 24.4452 17.2776 24.5359C17.1868 24.6267 17.0638 24.6777 16.9355 24.6778ZM20.3226 24.1939C20.3229 24.9261 20.0847 25.6384 19.6439 26.2231L17.6613 20.8871C18.4149 21.0533 19.0893 21.4715 19.5731 22.0727C20.057 22.674 20.3214 23.4222 20.3226 24.1939ZM1.93555 13.5488V16.452H5.80651V15.4842H10.6452V14.5165H9.67748V13.5488H8.70974V14.5165H7.742V13.5488H6.77426V14.5165H5.80652V13.5488H1.93555ZM4.83876 15.4842H2.90329V14.5165H4.83876V15.4842ZM24.6439 4.94685C23.0103 3.62488 20.9724 2.90363 18.871 2.90363C16.7695 2.90363 14.7317 3.62488 13.0981 4.94685L12.0344 5.80685H25.7075L24.6439 4.94685ZM14.9977 4.83911C16.1898 4.20371 17.52 3.87137 18.871 3.87137C20.2219 3.87137 21.5521 4.20371 22.7443 4.83911H14.9977ZM22.7419 9.67782H23.7097V10.6456H22.7419V9.67782ZM10.6452 9.67782H21.7742V10.6456H10.6452V9.67782ZM1.93555 2.41976H2.90329V3.3875H1.93555V2.41976Z" fill="black"/>
</svg>
