<svg width="29" height="20" viewBox="0 0 29 20" fill="none" xmlns="http://www.w3.org/2000/svg">
<path fill-rule="evenodd" clip-rule="evenodd" d="M4.22601 0.370571C1.98089 0.544349 0.28392 2.34298 0.174628 4.55911C0.0845834 6.38505 0 8.48622 0 9.9367C0 11.4038 0.0865295 13.5365 0.177722 15.3769C0.286133 17.5647 1.94426 19.3513 4.15808 19.5527C6.60875 19.7757 10.1546 20 14.5 20C18.8341 20 22.3728 19.7768 24.8228 19.5544C27.0452 19.3527 28.7066 17.5545 28.8135 15.3582C28.9078 13.4206 29 11.2035 29 9.9367C29 8.68349 28.9098 6.50029 28.8166 4.57765C28.7086 2.35295 27.009 0.543143 24.7553 0.369111C22.3431 0.182857 18.8637 0 14.5 0C10.125 0 6.63894 0.183809 4.22601 0.370571ZM11.6 5.69619L19.0756 9.9367L11.6 14.1772V5.69619Z" fill="black"/>
</svg>
