<svg width="35" height="26" viewBox="0 0 35 26" fill="none" xmlns="http://www.w3.org/2000/svg">
<path d="M33.3983 1.60262C32.365 0.569335 30.9887 0 29.5234 0C28.058 0 26.6821 0.568946 25.6488 1.60262C25.0745 2.1774 24.7334 2.87934 24.3387 3.6929C23.9685 4.45629 23.5072 5.40674 22.9577 5.95585C22.3923 6.52169 21.5352 6.97708 20.6889 7.38424C20.4906 7.4488 20.2872 7.51841 20.0702 7.59347C19.2699 7.87035 18.2739 8.2153 17.5 8.2153C16.7394 8.2153 15.8457 7.94813 15.1422 7.70974C14.3376 7.27146 13.4365 7.01558 12.49 7.04124C12.3196 7.04202 12.1489 7.05057 11.9817 7.0673C11.9257 7.07274 11.8705 7.0813 11.816 7.08985L11.7009 7.10658C11.6161 7.11824 11.5314 7.12991 11.4474 7.14663C11.3902 7.1583 11.3342 7.1723 11.2782 7.18708L11.1724 7.21352C11.088 7.23374 11.0036 7.25435 10.9231 7.27885C10.8776 7.29247 10.8333 7.30841 10.789 7.32435L10.7205 7.34846C10.6151 7.38463 10.5098 7.42119 10.4114 7.46241C10.3791 7.47563 10.3476 7.49041 10.2881 7.5188C10.1621 7.57519 10.038 7.63274 9.91319 7.70041L9.8673 7.72763C9.41191 7.97924 9.00125 8.28725 8.64658 8.64269C8.6248 8.66447 8.60497 8.6878 8.59447 8.70258C8.03758 9.27541 7.6203 9.94936 7.36791 10.6696L7.33524 10.7357C6.96463 11.4983 6.50341 12.4476 5.95546 12.9959C5.29201 13.6598 4.2214 14.1704 3.43818 14.5437C2.69579 14.8992 2.10973 15.1795 1.60145 15.6867C-0.533946 17.8232 -0.533946 21.2995 1.60223 23.4353C2.63551 24.469 4.01179 25.0379 5.47674 25.0379C6.94169 25.0379 8.31797 24.469 9.35086 23.4353C9.92642 22.8597 10.2834 22.1243 10.6614 21.345C11.032 20.5808 11.4933 19.6308 12.042 19.0824C12.6063 18.5182 13.4638 18.0616 14.3108 17.6529C14.5095 17.5883 14.7125 17.5207 14.9237 17.4464C15.7248 17.1691 16.7215 16.8226 17.5 16.8226C18.2599 16.8226 19.154 17.0905 19.8583 17.3285C20.6625 17.7668 21.5682 17.9986 22.481 17.9986L22.5408 17.9955C22.6999 17.9947 22.8582 17.9865 23.0211 17.9714C23.0798 17.9652 23.137 17.957 23.1942 17.9473L23.3291 17.9274C23.4038 17.9177 23.4785 17.9068 23.5539 17.8924C23.6107 17.8812 23.6671 17.866 23.7235 17.8516L23.8242 17.8267C23.9082 17.8061 23.993 17.7859 24.0773 17.7606C24.1225 17.747 24.1664 17.7311 24.2103 17.7151L24.2652 17.6953C24.3748 17.6572 24.4837 17.6194 24.5887 17.5751C24.6183 17.5638 24.6478 17.5502 24.7159 17.5183C24.84 17.4627 24.964 17.4052 25.0838 17.3398L25.134 17.311C25.5874 17.0602 25.9977 16.7518 26.3578 16.3921C26.3784 16.3699 26.3967 16.3489 26.4049 16.3365C26.947 15.7788 27.3716 15.0967 27.6349 14.3625L27.6625 14.3057C28.0331 13.5431 28.4947 12.5926 29.0439 12.0435C29.7057 11.382 30.7779 10.8699 31.5643 10.4938C32.3051 10.1391 32.8904 9.85914 33.3975 9.35203C35.534 7.21508 35.534 3.73918 33.3983 1.60262ZM32.6936 8.64658C32.3074 9.03314 31.8411 9.25597 31.131 9.59547C30.2833 10.0007 29.1228 10.5556 28.3392 11.3377C27.6715 12.0058 27.1702 13.0399 26.7665 13.8709L26.7059 14.0024C26.4912 14.6122 26.14 15.1788 25.6862 15.6454C25.6691 15.6645 25.6527 15.6835 25.6485 15.6917C25.3587 15.981 25.0231 16.2327 24.609 16.464C24.5106 16.5165 24.4095 16.5628 24.3126 16.606L24.2072 16.6546C24.1193 16.6912 24.0307 16.7215 23.942 16.7518L23.7896 16.8051C23.7238 16.8257 23.6577 16.8417 23.5485 16.8673L23.4711 16.8872C23.4326 16.8969 23.3948 16.9078 23.3567 16.9152C23.3035 16.9257 23.2502 16.9327 23.1969 16.9393L23.0371 16.963C22.9978 16.9684 22.9585 16.975 22.9227 16.9797C22.7936 16.9918 22.6637 16.998 22.5338 16.9988L22.479 17.0019C21.7218 17.0019 20.9682 16.8067 20.3008 16.436L20.2199 16.3995C19.3881 16.116 18.4147 15.8267 17.4993 15.8267C16.5527 15.8267 15.4677 16.2027 14.5966 16.5057C14.3812 16.5799 14.175 16.6492 13.9724 16.7145L13.909 16.7394C12.973 17.1905 12.0132 17.7011 11.3373 18.377C10.67 19.0447 10.1683 20.0776 9.76425 20.9094C9.40958 21.6417 9.10314 22.2737 8.64619 22.731C7.80113 23.5757 6.6753 24.0412 5.47635 24.0412C4.2774 24.0412 3.15118 23.5757 2.30612 22.731C0.558446 20.9826 0.558446 18.1386 2.30612 16.3909C2.69306 16.0036 3.16012 15.7796 3.86829 15.4424C4.71529 15.0376 5.87574 14.4846 6.66013 13.7002C7.32669 13.0333 7.82835 12.0004 8.23475 11.1635L8.29386 11.0359C8.51163 10.4168 8.85308 9.86536 9.31353 9.3913C9.33025 9.3738 9.3458 9.35553 9.35125 9.34619C9.64019 9.05686 9.97581 8.80525 10.3888 8.57502C10.4888 8.52136 10.5914 8.47391 10.6968 8.42686L10.7929 8.38213C10.8753 8.34752 10.9593 8.31874 11.0604 8.28452L11.2117 8.23163C11.2759 8.21219 11.3404 8.19702 11.4536 8.16941L11.5286 8.15036C11.566 8.14063 11.6029 8.13091 11.6418 8.12313C11.706 8.1103 11.7709 8.10174 11.8351 8.0928L11.972 8.07297C12.0066 8.06752 12.0412 8.06169 12.0789 8.05819C12.2174 8.04419 12.357 8.03758 12.5191 8.03524C13.2783 8.03524 14.0315 8.23124 14.6985 8.60186L14.7794 8.63802C15.6104 8.92153 16.583 9.21086 17.5 9.21086C18.4419 9.21086 19.525 8.83597 20.4031 8.53186C20.6182 8.45719 20.8254 8.38641 21.0273 8.32108L21.0903 8.29619C22.0252 7.84663 22.9842 7.33758 23.662 6.65935C24.3301 5.99163 24.8314 4.95757 25.2347 4.12651C25.5897 3.39462 25.8966 2.76267 26.3531 2.30612C27.1986 1.46106 28.324 0.995169 29.523 0.995169C30.7223 0.995169 31.8481 1.46067 32.6932 2.30612C34.4413 4.05496 34.4413 6.89891 32.6936 8.64658Z" fill="black"/>
<path d="M5.47715 17.0703C4.10164 17.0703 2.98669 18.1861 2.98669 19.5608C2.98669 20.9363 4.10203 22.0512 5.47715 22.0512C6.85265 22.0512 7.96799 20.9363 7.96799 19.5608C7.96799 18.1861 6.85265 17.0703 5.47715 17.0703ZM5.47715 21.0549C4.65309 21.0549 3.98303 20.3849 3.98303 19.5608C3.98303 18.7367 4.65348 18.0659 5.47715 18.0659C6.3012 18.0659 6.97165 18.7367 6.97165 19.5608C6.97165 20.3849 6.3012 21.0549 5.47715 21.0549Z" fill="black"/>
<path d="M12.5311 10.0287C11.1556 10.0287 10.0403 11.1441 10.0403 12.5192C10.0403 13.8947 11.1556 15.0096 12.5311 15.0096C13.9066 15.0096 15.0216 13.8947 15.0216 12.5192C15.0216 11.1437 13.9062 10.0287 12.5311 10.0287ZM12.5311 14.0133C11.7071 14.0133 11.0366 13.3432 11.0366 12.5192C11.0366 11.6951 11.7071 11.0247 12.5311 11.0247C13.3552 11.0247 14.0252 11.6951 14.0252 12.5192C14.0252 13.3432 13.3548 14.0133 12.5311 14.0133Z" fill="black"/>
<path d="M22.4815 10.0283C21.1064 10.0283 19.9911 11.1432 19.9911 12.5187C19.9911 13.8946 21.1064 15.0096 22.4815 15.0096C23.8574 15.0096 24.9724 13.8946 24.9724 12.5187C24.9724 11.1432 23.8574 10.0283 22.4815 10.0283ZM22.4815 14.0132C21.6579 14.0132 20.9874 13.3432 20.9874 12.5191C20.9874 11.6951 21.6579 11.0246 22.4815 11.0246C23.3056 11.0246 23.976 11.6951 23.976 12.5191C23.9757 13.3432 23.3056 14.0132 22.4815 14.0132Z" fill="black"/>
<path d="M29.5238 2.98666C28.1483 2.98666 27.0333 4.10161 27.0333 5.47712C27.0333 6.85262 28.1483 7.96757 29.5238 7.96757C30.8993 7.96757 32.0146 6.85223 32.0146 5.47712C32.0146 4.10161 30.8993 2.98666 29.5238 2.98666ZM29.5238 6.97162C28.7001 6.97162 28.0297 6.30117 28.0297 5.47712C28.0297 4.65306 28.7001 3.98261 29.5238 3.98261C30.3478 3.98261 31.0183 4.65306 31.0183 5.47712C31.0183 6.30117 30.3478 6.97162 29.5238 6.97162Z" fill="black"/>
</svg>
