<svg width="100" height="100" viewBox="0 0 100 100" fill="none" xmlns="http://www.w3.org/2000/svg">
<rect width="100" height="100" fill="white"/>
<path d="M62.2182 48.5714C67.0182 50.7857 70 55.2857 70 60.7143C70 68.8571 62.8727 75 53.4909 75H30V25H52.9818C62 25 68.6182 30.3571 68.6182 37.7857C68.6182 42.2143 66.0727 46.2143 62.2182 48.5714ZM55.3091 40.0714C55.3091 37.4286 53.4909 35.7143 50.5818 35.7143H43.4545V44.4286H50.5818C53.4909 44.4286 55.3091 42.6429 55.3091 40.0714ZM51.0909 63.6429C54.1455 63.6429 56.1091 61.7857 56.1091 59.0714C56.1091 56.4286 54.1455 54.5714 51.0909 54.5714H43.4545V63.6429H51.0909Z" fill="black"/>
</svg>
